<?xml version="1.0" standalone="no"?>
<!DOCTYPE svg PUBLIC "-//W3C//DTD SVG 20010904//EN"
 "http://www.w3.org/TR/2001/REC-SVG-20010904/DTD/svg10.dtd">
<svg version="1.0" xmlns="http://www.w3.org/2000/svg"
 width="300.000000pt" height="160.000000pt" viewBox="0 0 300.000000 160.000000"
 preserveAspectRatio="xMidYMid meet">
<metadata>
Created by potrace 1.10, written by Peter Selinger 2001-2011
</metadata>
<g transform="translate(0.000000,160.000000) scale(0.100000,-0.100000)"
fill="#000000" stroke="none">
<path d="M935 1249 c-87 -13 -146 -35 -208 -78 l-55 -39 -20 20 c-30 30 -108
35 -149 9 -47 -30 -67 -66 -66 -121 1 -57 23 -92 73 -116 69 -34 146 -10 182
56 18 33 19 55 6 124 -4 25 77 81 151 104 89 27 303 24 401 -6 125 -40 233
-118 274 -199 25 -50 42 -167 29 -195 l-12 -23 0 26 c-1 15 -8 30 -16 33 -19
7 -35 -28 -42 -92 -6 -43 -25 -53 -31 -16 -12 67 -24 94 -42 94 -17 0 -20 -9
-22 -87 l-3 -88 -35 3 c-47 5 -92 29 -191 104 -106 80 -156 105 -255 125 -107
22 -199 8 -310 -47 -204 -100 -317 -343 -259 -559 19 -73 58 -150 99 -197 45
-50 46 -31 2 35 -55 81 -71 141 -70 261 1 128 24 203 64 208 l25 3 -3 -161 -4
-160 116 0 116 0 0 161 0 161 150 -4 150 -3 0 108 0 107 -149 0 c-99 0 -152 4
-157 11 -10 17 13 27 91 40 137 23 263 -15 404 -124 78 -59 134 -86 179 -87
27 0 32 -4 32 -25 0 -18 5 -25 20 -25 14 0 20 7 20 24 0 13 7 26 15 30 8 3 15
1 15 -4 0 -6 8 -10 19 -10 12 0 20 9 24 29 3 16 13 31 21 34 13 5 16 -2 16
-37 0 -56 8 -76 29 -76 16 0 16 6 5 78 -11 66 -10 85 3 131 44 154 -43 312
-219 398 -111 55 -285 81 -413 62z m-295 -118 c83 -60 33 -201 -71 -201 -33 0
-47 6 -75 34 -100 100 31 250 146 167z m24 -336 c24 -24 30 -25 145 -25 70 0
122 -4 126 -10 9 -14 13 -117 5 -130 -4 -7 -54 -11 -128 -11 -163 0 -162 2
-162 -165 0 -67 -3 -129 -6 -138 -5 -13 -22 -16 -79 -16 -71 0 -73 1 -78 28
-3 15 -6 79 -6 141 0 108 -1 116 -22 132 -13 9 -29 15 -36 12 -19 -7 -16 5 11
51 30 50 81 98 138 131 54 31 61 31 92 0z"/>
<path d="M528 1114 c-53 -28 -52 -106 1 -141 37 -25 62 -23 95 6 30 26 38 58
22 96 -23 54 -66 68 -118 39z m72 -24 c12 0 20 -39 14 -69 -7 -35 -49 -36 -83
-2 -21 21 -22 25 -7 33 9 5 16 15 16 23 0 16 19 25 38 19 8 -2 17 -4 22 -4z"/>
<path d="M460 864 l0 -65 33 25 c18 14 53 34 77 45 l45 21 -45 0 c-27 0 -58 8
-77 20 l-33 20 0 -66z"/>
<path d="M2506 848 c-2 -7 -20 -64 -39 -127 -20 -63 -34 -118 -31 -123 11 -18
32 -6 40 23 5 17 12 30 17 30 4 -1 18 -1 32 -1 20 0 25 -5 25 -24 0 -37 10
-56 29 -56 16 0 15 12 -9 143 -21 112 -30 143 -43 145 -10 2 -19 -2 -21 -10z
m27 -120 c5 -35 4 -38 -18 -38 -15 0 -23 5 -20 13 28 80 29 81 38 25z"/>
<path d="M1610 715 l0 -135 45 0 c39 0 45 3 45 21 0 18 -4 20 -25 15 -24 -6
-25 -4 -25 39 0 38 3 45 20 45 11 0 20 7 20 15 0 8 -9 15 -20 15 -17 0 -20 7
-20 40 0 36 3 40 25 40 18 0 25 5 25 20 0 17 -7 20 -45 20 l-45 0 0 -135z"/>
<path d="M1745 840 c-3 -5 -5 -66 -4 -135 1 -117 2 -125 21 -125 32 0 78 29
98 63 24 39 26 107 4 148 -21 42 -103 75 -119 49z m75 -50 c11 -11 22 -31 26
-45 8 -34 -15 -94 -43 -113 l-23 -14 0 96 c0 100 5 111 40 76z"/>
<path d="M2042 841 c-11 -6 -6 -24 23 -81 l37 -74 -21 -43 c-25 -52 -26 -63
-6 -63 8 0 23 16 33 35 l18 36 13 -36 c11 -32 33 -46 44 -27 3 4 -5 27 -18 52
l-23 45 29 57 c33 66 35 74 14 82 -11 4 -22 -9 -39 -47 l-24 -52 -28 63 c-30
65 -31 67 -52 53z"/>
<path d="M2780 715 l0 -135 51 0 c43 0 50 3 47 18 -2 10 -13 17 -28 17 -22 0
-25 5 -28 43 -3 37 -1 42 17 42 14 0 21 6 21 19 0 14 -5 18 -20 14 -18 -5 -20
0 -20 36 0 37 2 41 25 41 18 0 25 5 25 20 0 17 -7 20 -45 20 l-45 0 0 -135z"/>
<path d="M1920 820 c0 -11 6 -20 13 -20 9 0 11 -23 9 -90 -2 -49 -8 -90 -13
-90 -5 0 -9 -9 -9 -20 0 -17 7 -20 45 -20 38 0 45 3 45 20 0 11 -7 20 -15 20
-12 0 -15 17 -15 95 0 68 3 94 12 93 6 -2 14 5 16 15 3 14 -4 17 -42 17 -39 0
-46 -3 -46 -20z"/>
<path d="M2281 821 c-20 -20 -41 -80 -41 -118 0 -59 47 -123 91 -123 30 0 69
40 69 71 0 27 -29 23 -39 -5 -14 -35 -37 -39 -61 -9 -34 43 -23 152 17 167 19
8 33 -1 33 -20 0 -8 10 -14 25 -14 25 0 25 1 11 29 -24 45 -72 55 -105 22z"/>
<path d="M2630 709 c0 -119 2 -130 18 -127 13 2 16 11 14 36 -4 41 16 42 31 2
7 -18 19 -30 29 -30 23 0 23 22 -1 51 -19 24 -19 24 1 46 50 53 11 153 -59
153 l-33 0 0 -131z m64 79 c20 -29 20 -62 0 -82 -27 -27 -34 -18 -34 44 0 64
9 74 34 38z"/>
<path d="M160 693 l0 -103 79 0 78 0 32 64 c18 35 48 79 67 97 19 18 34 35 34
38 0 4 -65 6 -145 6 l-145 0 0 -102z m204 55 c-4 -13 -15 -34 -25 -47 -11 -13
-19 -28 -19 -34 0 -21 -34 -47 -62 -47 -52 0 -68 16 -68 67 0 70 17 83 107 83
73 0 74 -1 67 -22z"/>
<path d="M1060 494 c0 -15 77 -16 925 -13 731 3 925 7 925 17 0 9 -192 12
-925 12 -847 0 -925 -1 -925 -16z"/>
</g>
</svg>
