<?xml version="1.0" encoding="UTF-8"?>
<svg version="1.1" xmlns="http://www.w3.org/2000/svg" width="500" height="500">
<path d="M0 0 C1.70410156 1.5534668 1.70410156 1.5534668 3 3 C3 3.66 3 4.32 3 5 C3.66 5 4.32 5 5 5 C6.8140544 7.08781717 8.51118398 9.18036606 10.1875 11.375 C10.68435303 12.01985352 11.18120605 12.66470703 11.69311523 13.32910156 C13.13715044 15.21317675 14.56986714 17.10536166 16 19 C16.63679688 19.83273438 17.27359375 20.66546875 17.9296875 21.5234375 C51.80308976 67.71444059 62.1496868 133.29728635 54 189 C48.9786629 220.87096605 38.73536281 252.97889579 15 276 C16.36946418 279.07623481 17.95444612 281.11580361 20.3125 283.5 C29.55336534 293.76334104 30.71596969 306.61401922 30.17480469 319.7734375 C29.27941303 331.17842619 22.53897298 341.65251162 14 349 C2.2580843 358.68542199 -10.1656617 361.2724014 -25 360 C-37.28820663 357.86434912 -48.48763398 350.48106817 -55.859375 340.4765625 C-63.06532013 328.88283891 -66.05514327 316.17002325 -63.31640625 302.6171875 C-59.35174903 288.69976009 -52.24255855 278.29263216 -39.5625 271.125 C-27.54531581 265.08199443 -14.82106826 263.9134772 -1.8125 267.9375 C0.78719559 268.849846 3.38207725 269.76536042 5.95776367 270.7434082 C8.05548127 271.23312267 8.05548127 271.23312267 9.71533203 269.85644531 C13.88092967 265.41395436 17.52553891 260.83680365 20.875 255.75 C21.38820801 254.97060059 21.90141602 254.19120117 22.43017578 253.38818359 C39.18840347 227.30998355 47.04091418 196.08870489 47.203125 165.20703125 C47.21371445 163.85635559 47.21371445 163.85635559 47.22451782 162.47839355 C47.5304605 135.09110693 47.5304605 135.09110693 44 108 C43.79600586 107.00097656 43.59201172 106.00195312 43.38183594 104.97265625 C36.67175032 73.05335523 24.92280584 39.90175933 2.30932617 15.62231445 C1 14 1 14 1 12 C0.34 12 -0.32 12 -1 12 C-2.375 10.53125 -2.375 10.53125 -4 8.5 C-20.67029095 -10.94296767 -46.22895629 -19.69958585 -71.07397461 -21.65844727 C-92.00186687 -22.98736948 -113.1851302 -18.97712324 -129.75 -5.3125 C-141.70965929 5.94113289 -146.69258772 21.65923347 -147.3125 37.75 C-146.34369341 71.44294026 -121.90912296 100.90313218 -100.9609375 125.3828125 C-72.18862529 159.3649261 -62.98744965 203.59635437 -65 247 C-68.28064071 283.39587352 -83.93267376 315.11862306 -107 343 C-107.51046875 343.63421875 -108.0209375 344.2684375 -108.546875 344.921875 C-112.29009073 349.47008336 -116.49624316 353.21897441 -121 357 C-121.886875 357.77472656 -122.77375 358.54945313 -123.6875 359.34765625 C-150.65503916 382.54978104 -187.03484719 398.97299874 -223.0234375 399.203125 C-223.76250336 399.21022995 -224.50156921 399.2173349 -225.26303101 399.22465515 C-255.93159955 399.45261815 -255.93159955 399.45261815 -269 396 C-269.92135742 395.76361816 -270.84271484 395.52723633 -271.79199219 395.28369141 C-295.77938243 389.01557163 -317.60832208 379.68707542 -337 364 C-337.57476074 363.54270508 -338.14952148 363.08541016 -338.74169922 362.61425781 C-340.54749618 361.17292028 -342.33836767 359.7150039 -344.125 358.25 C-344.6821167 357.80221191 -345.2392334 357.35442383 -345.81323242 356.89306641 C-349.01392081 354.21163731 -350.8260098 352.02925033 -352 348 C-351.34 347.34 -350.68 346.68 -350 346 C-345.63900911 346.54196013 -342.73333588 349.32045425 -339.375 351.9375 C-322.79263622 364.42853718 -304.38386446 372.97330026 -284.375 378.3125 C-283.46983643 378.55516602 -282.56467285 378.79783203 -281.63208008 379.04785156 C-268.3126074 382.4119195 -254.98805088 383.41311061 -241.3125 383.375 C-240.57054382 383.37445618 -239.82858765 383.37391235 -239.06414795 383.37335205 C-226.97428692 383.33278314 -215.65946142 382.30886544 -204 379 C-203.13681152 378.76442383 -202.27362305 378.52884766 -201.38427734 378.28613281 C-192.93763461 375.96304035 -184.77104586 373.52029522 -176.83666992 369.76953125 C-175 369 -175 369 -173 369 C-173 364.38 -173 359.76 -173 355 C-208.31 354.67 -243.62 354.34 -280 354 C-280 328.26 -280 302.52 -280 276 C-244.69 275.67 -209.38 275.34 -173 275 C-173.03961783 242.13487956 -173.03961783 242.13487956 -173.09008789 209.26977539 C-173.09460449 202.92663574 -173.09460449 202.92663574 -173.09544373 199.96116638 C-173.09698361 197.88120816 -173.10050943 195.80125084 -173.10557556 193.72129822 C-173.11285039 190.57858723 -173.11390751 187.43593099 -173.11352539 184.29321289 C-173.1171235 183.35997476 -173.12072161 182.42673662 -173.12442875 181.46521854 C-173.11402634 175.11402634 -173.11402634 175.11402634 -172 174 C-169.65741937 173.90507105 -167.34457881 173.87441517 -165.00170898 173.88647461 C-164.25817452 173.88635407 -163.51464006 173.88623354 -162.74857426 173.88610935 C-160.33105079 173.88685841 -157.9136035 173.89448629 -155.49609375 173.90234375 C-154.00785357 173.90381319 -152.51961287 173.90483389 -151.03137207 173.90539551 C-145.50007352 173.91064813 -139.96878602 173.92460922 -134.4375 173.9375 C-115.9059375 173.9684375 -115.9059375 173.9684375 -97 174 C-97 207.66 -97 241.32 -97 276 C-94.36 276 -91.72 276 -89 276 C-88.7525 274.845 -88.505 273.69 -88.25 272.5 C-87.43300548 268.77683928 -86.50350102 265.09439697 -85.52929688 261.40942383 C-75.02452077 221.03290202 -80.8678295 175.93785771 -101.92919922 139.77294922 C-106.71268013 131.85283103 -112.31722312 124.51740516 -117.98779297 117.21948242 C-138.45758387 90.80117185 -157.74127623 64.06230122 -155 29 C-152.81795181 12.76211222 -145.49457054 -3.0636196 -132.37646484 -13.26220703 C-91.713851 -42.8149441 -35.5328386 -31.81723879 0 0 Z M-47.3125 289.375 C-54.48217336 298.19768138 -55.69915848 307.97872001 -55 319 C-53.20019469 329.13276218 -47.93541143 337.50595072 -40 344 C-30.17252021 350.4830495 -20.64264609 352.13693172 -9 351 C1.12243478 348.9181692 8.81607253 343.3143029 14.875 335.0625 C21.38667401 325.08396252 23.01718666 315.71428878 20.79296875 303.99609375 C17.65564377 292.14225998 11.01971211 285.3944797 1.1328125 278.734375 C-16.02126229 269.23760542 -34.84543803 275.94174073 -47.3125 289.375 Z " fill="#FC3231" transform="translate(393,39)"/>
<path d="M0 0 C1.70410156 1.5534668 1.70410156 1.5534668 3 3 C3 3.66 3 4.32 3 5 C3.66 5 4.32 5 5 5 C6.8140544 7.08781717 8.51118398 9.18036606 10.1875 11.375 C10.93277954 12.34228027 10.93277954 12.34228027 11.69311523 13.32910156 C13.13715044 15.21317675 14.56986714 17.10536166 16 19 C16.63679687 19.83273438 17.27359375 20.66546875 17.9296875 21.5234375 C51.80308976 67.71444059 62.1496868 133.29728635 54 189 C48.9786629 220.87096605 38.73536281 252.97889579 15 276 C16.36946418 279.07623481 17.95444612 281.11580361 20.3125 283.5 C29.55336534 293.76334104 30.71596969 306.61401922 30.17480469 319.7734375 C29.27941303 331.17842619 22.53897298 341.65251162 14 349 C2.2580843 358.68542199 -10.1656617 361.2724014 -25 360 C-37.28820663 357.86434912 -48.48763398 350.48106817 -55.859375 340.4765625 C-63.06532013 328.88283891 -66.05514327 316.17002325 -63.31640625 302.6171875 C-59.35174903 288.69976009 -52.24255855 278.29263216 -39.5625 271.125 C-27.54531581 265.08199443 -14.82106826 263.9134772 -1.8125 267.9375 C0.78719559 268.849846 3.38207725 269.76536042 5.95776367 270.7434082 C8.05548127 271.23312267 8.05548127 271.23312267 9.71533203 269.85644531 C13.88092967 265.41395436 17.52553891 260.83680365 20.875 255.75 C21.38820801 254.97060059 21.90141602 254.19120117 22.43017578 253.38818359 C39.18840347 227.30998355 47.04091418 196.08870489 47.203125 165.20703125 C47.21371445 163.85635559 47.21371445 163.85635559 47.22451782 162.47839355 C47.5304605 135.09110693 47.5304605 135.09110693 44 108 C43.79600586 107.00097656 43.59201172 106.00195312 43.38183594 104.97265625 C36.67175032 73.05335523 24.92280584 39.90175933 2.30932617 15.62231445 C1 14 1 14 1 12 C0.34 12 -0.32 12 -1 12 C-2.375 10.53125 -2.375 10.53125 -4 8.5 C-20.67029095 -10.94296767 -46.22895629 -19.69958585 -71.07397461 -21.65844727 C-92.00186687 -22.98736948 -113.1851302 -18.97712324 -129.75 -5.3125 C-141.70965929 5.94113289 -146.69258772 21.65923347 -147.3125 37.75 C-146.34369341 71.44294026 -121.90912296 100.90313218 -100.9609375 125.3828125 C-91.75485973 136.2558344 -84.43000486 149.11466088 -78.6875 162.125 C-78.39157959 162.79354004 -78.09565918 163.46208008 -77.79077148 164.15087891 C-77.12416661 165.73978417 -76.55191068 167.36770818 -76 169 C-76.33 169.66 -76.66 170.32 -77 171 C-77.33 170.01 -77.66 169.02 -78 168 C-78.99 168 -79.98 168 -81 168 C-81 169.32 -81 170.64 -81 172 C-81.66 172 -82.32 172 -83 172 C-83.33 175.3 -83.66 178.6 -84 182 C-86.17039557 178.74440664 -87.06536122 175.64199361 -88.125 171.9375 C-94.02391251 152.41315096 -103.64297745 135.49400752 -116.23828125 119.52734375 C-137.41839089 92.6409992 -157.80939385 64.93355992 -155 29 C-152.81795181 12.76211222 -145.49457054 -3.0636196 -132.37646484 -13.26220703 C-91.713851 -42.8149441 -35.5328386 -31.81723879 0 0 Z M-47.3125 289.375 C-54.48217336 298.19768138 -55.69915848 307.97872001 -55 319 C-53.20019469 329.13276218 -47.93541143 337.50595072 -40 344 C-30.17252021 350.4830495 -20.64264609 352.13693172 -9 351 C1.12243478 348.9181692 8.81607253 343.3143029 14.875 335.0625 C21.38667401 325.08396252 23.01718666 315.71428878 20.79296875 303.99609375 C17.65564377 292.14225998 11.01971211 285.3944797 1.1328125 278.734375 C-16.02126229 269.23760542 -34.84543803 275.94174073 -47.3125 289.375 Z " fill="#F23635" transform="translate(393,39)"/>
<path d="M0 0 C2.31 0 4.62 0 7 0 C6.54109375 0.72703125 6.0821875 1.4540625 5.609375 2.203125 C-3.2695818 16.75267606 -6.56787998 30.69895876 -3.3046875 47.6015625 C-0.40843476 57.02046847 4.74223925 64.49068709 11 72 C-4.51 72 -20.02 72 -36 72 C-36 105.66 -36 139.32 -36 174 C-59.43 174 -82.86 174 -107 174 C-107 155.52 -107 137.04 -107 118 C-95.12 112.555 -95.12 112.555 -83 107 C-68.93569832 99.16264105 -56.71155769 90.05985071 -45 79 C-44.20207031 78.26652344 -43.40414062 77.53304687 -42.58203125 76.77734375 C-30.56316829 65.3317175 -21.55380261 51.68691538 -14 37 C-13.68724121 36.40429199 -13.37448242 35.80858398 -13.05224609 35.19482422 C-7.2186014 23.97244747 -3.60605622 12.08699689 0 0 Z " fill="#027F43" transform="translate(330,318)"/>
<path d="M0 0 C7.91374982 4.51808338 12.38446776 10.47510429 15.17578125 19.2421875 C16.61347105 27.64132264 16.02241017 35.8272228 11.6015625 43.26171875 C9.68437901 45.92476541 7.6767369 48.1163752 5.17578125 50.2421875 C4.03109375 51.2940625 4.03109375 51.2940625 2.86328125 52.3671875 C-4.86684507 57.76029888 -12.60845056 58.17328693 -21.82421875 57.2421875 C-29.44840406 55.33330057 -36.29368132 50.37393348 -40.3984375 43.671875 C-44.61620821 35.38135722 -46.37729286 27.78193933 -44.17578125 18.51171875 C-41.13319906 10.12511399 -35.65784887 3.57568502 -27.82421875 -0.7578125 C-18.84623999 -4.26265287 -8.74283276 -4.14962602 0 0 Z " fill="#037F43" transform="translate(390.82421875,324.7578125)"/>
<path d="M0 0 C2.31 0 4.62 0 7 0 C6.54109375 0.72703125 6.0821875 1.4540625 5.609375 2.203125 C-3.2695818 16.75267606 -6.56787998 30.69895876 -3.3046875 47.6015625 C-0.40843476 57.02046847 4.74223925 64.49068709 11 72 C-4.51 72 -20.02 72 -36 72 C-36 105.66 -36 139.32 -36 174 C-59.43 174 -82.86 174 -107 174 C-107 155.52 -107 137.04 -107 118 C-106.34 118.33 -105.68 118.66 -105 119 C-105.33 136.82 -105.66 154.64 -106 173 C-94.11614489 172.85126041 -94.11614489 172.85126041 -82.23242188 172.69335938 C-77.38862212 172.62696226 -72.5448243 172.56165938 -67.70092773 172.50268555 C-63.79757638 172.45509607 -59.89431551 172.4027555 -55.9910717 172.34705925 C-54.49868955 172.32661106 -53.00628257 172.30790213 -51.51385689 172.29092598 C-49.43045151 172.2669362 -47.3472186 172.23687481 -45.26391602 172.20532227 C-44.07588882 172.18977798 -42.88786163 172.1742337 -41.66383362 172.15821838 C-39.07920145 172.30051415 -39.07920145 172.30051415 -38 171 C-37.9047178 168.01701786 -37.87447825 165.05723655 -37.88647461 162.07397461 C-37.88632858 161.13748581 -37.88618256 160.20099701 -37.8860321 159.23612976 C-37.88673163 156.12484461 -37.89452585 153.01361851 -37.90234375 149.90234375 C-37.90420779 147.75142957 -37.90563176 145.60051497 -37.90663147 143.44960022 C-37.91045775 137.77618242 -37.92028898 132.10279005 -37.93133545 126.42938232 C-37.9415472 120.64498234 -37.94612858 114.86057827 -37.95117188 109.07617188 C-37.96191115 97.71743672 -37.97898889 86.35872047 -38 75 C-38.89203125 75.89203125 -39.7840625 76.7840625 -40.703125 77.703125 C-45.46875 82.46875 -50.234375 87.234375 -55 92 C-55.99 91.67 -56.98 91.34 -58 91 C-57.5875 90.61779297 -57.175 90.23558594 -56.75 89.84179688 C-52.75359352 86.13530827 -48.77080094 82.41475827 -44.79833984 78.68261719 C-43.42292417 77.39570912 -42.03618241 76.12089606 -40.64453125 74.8515625 C-29.36324782 64.21973462 -21.03871092 50.68541872 -14 37 C-13.68724121 36.40429199 -13.37448242 35.80858398 -13.05224609 35.19482422 C-7.2186014 23.97244747 -3.60605622 12.08699689 0 0 Z " fill="#047E43" transform="translate(330,318)"/>
<path d="M0 0 C4.36099089 0.54196013 7.26666412 3.32045425 10.625 5.9375 C27.81741377 18.88807101 47.1931042 27.691109 68 33 C67.35546875 33.24492187 66.7109375 33.48984375 66.046875 33.7421875 C63.83022612 34.79577869 63.83022612 34.79577869 63.390625 36.9453125 C63.34421875 37.66460937 63.2978125 38.38390625 63.25 39.125 C63.1675 40.40375 63.085 41.6825 63 43 C56.51634011 45.16121996 47.28732501 39.14702489 41.23828125 36.203125 C28.57517297 29.80685167 16.98169448 21.7314363 6.125 12.625 C5.53581787 12.13741211 4.94663574 11.64982422 4.33959961 11.14746094 C1.12959403 8.37355856 -0.82035037 6.10637531 -2 2 C-1.34 1.34 -0.68 0.68 0 0 Z " fill="#F13636" transform="translate(43,385)"/>
<path d="M0 0 C0 0.66 0 1.32 0 2 C-0.969375 2.515625 -1.93875 3.03125 -2.9375 3.5625 C-9.60719498 7.40674375 -16.37048013 11.44013037 -19 19 C-19.69907414 21.73572585 -19.69907414 21.73572585 -20 24 C-18.35 23.67 -16.7 23.34 -15 23 C-15.20496094 23.60328125 -15.40992188 24.2065625 -15.62109375 24.828125 C-15.89050781 25.62734375 -16.15992188 26.4265625 -16.4375 27.25 C-16.70433594 28.03890625 -16.97117187 28.8278125 -17.24609375 29.640625 C-20.44935996 39.6653545 -19.48513994 49.19465811 -16 59 C-15.6511304 60.32935281 -15.31258504 61.66165046 -15 63 C-16.65 62.67 -18.3 62.34 -20 62 C-19.67 61.34 -19.34 60.68 -19 60 C-19.60578253 57.98072489 -20.26919734 55.97746603 -21 54 C-22.32 54.66 -23.64 55.32 -25 56 C-25 56.99 -25 57.98 -25 59 C-24.34 59 -23.68 59 -23 59 C-23 60.65 -23 62.3 -23 64 C-22.34 64 -21.68 64 -21 64 C-17.77734375 69.17578125 -17.77734375 69.17578125 -17 71 C-17.33 71.99 -17.66 72.98 -18 74 C-26.61815437 62.10694697 -30.16611563 50.74889916 -29 36 C-26.50436751 23.65018437 -20.82255595 13.0108006 -11 5 C-3.39659367 0 -3.39659367 0 0 0 Z " fill="#F43737" transform="translate(358,309)"/>
<path d="M0 0 C0.99 1.485 0.99 1.485 2 3 C1.21625 3.5775 0.4325 4.155 -0.375 4.75 C-2.86993689 6.88851733 -3.62547633 8.15277241 -5 11 C-5.99 11.33 -6.98 11.66 -8 12 C-7.505 13.98 -7.505 13.98 -7 16 C-8.32 16 -9.64 16 -11 16 C-11 49.66 -11 83.32 -11 118 C-34.43 118 -57.86 118 -82 118 C-82 99.52 -82 81.04 -82 62 C-81.34 62.33 -80.68 62.66 -80 63 C-80.33 80.82 -80.66 98.64 -81 117 C-69.11614489 116.85126041 -69.11614489 116.85126041 -57.23242188 116.69335938 C-52.38862212 116.62696226 -47.5448243 116.56165938 -42.70092773 116.50268555 C-38.79757638 116.45509607 -34.89431551 116.4027555 -30.9910717 116.34705925 C-29.49868955 116.32661106 -28.00628257 116.30790213 -26.51385689 116.29092598 C-24.43045151 116.2669362 -22.3472186 116.23687481 -20.26391602 116.20532227 C-19.07588882 116.18977798 -17.88786163 116.1742337 -16.66383362 116.15821838 C-14.07920145 116.30051415 -14.07920145 116.30051415 -13 115 C-12.9047178 112.01701786 -12.87447825 109.05723655 -12.88647461 106.07397461 C-12.88632858 105.13748581 -12.88618256 104.20099701 -12.8860321 103.23612976 C-12.88673163 100.12484461 -12.89452585 97.01361851 -12.90234375 93.90234375 C-12.90420779 91.75142957 -12.90563176 89.60051497 -12.90663147 87.44960022 C-12.91045775 81.77618242 -12.92028898 76.10279005 -12.93133545 70.42938232 C-12.9415472 64.64498234 -12.94612858 58.86057827 -12.95117188 53.07617188 C-12.96191115 41.71743672 -12.97898889 30.35872047 -13 19 C-13.89203125 19.89203125 -14.7840625 20.7840625 -15.703125 21.703125 C-20.46875 26.46875 -25.234375 31.234375 -30 36 C-30.99 35.67 -31.98 35.34 -33 35 C-32.5875 34.61779297 -32.175 34.23558594 -31.75 33.84179688 C-27.75738485 30.13882456 -23.77635898 26.42383337 -19.80712891 22.69580078 C-18.39988483 21.37524993 -16.98796999 20.05967582 -15.57421875 18.74609375 C-9.66350308 13.08012822 -4.87405745 6.55201166 0 0 Z " fill="#18774C" transform="translate(305,374)"/>
<path d="M0 0 C0.33 0 0.66 0 1 0 C4.08699997 22.80783472 5.55510602 46.04967268 3 69 C2.67 69 2.34 69 2 69 C2 54.15 2 39.3 2 24 C1.01 24.33 0.02 24.66 -1 25 C-1.33 36.55 -1.66 48.1 -2 60 C-2.66 60 -3.32 60 -4 60 C-4.02505615 58.84177734 -4.0501123 57.68355469 -4.07592773 56.49023438 C-4.17146766 52.11401867 -4.27130459 47.73790898 -4.37231445 43.36181641 C-4.41511842 41.4826102 -4.45682034 39.6033785 -4.49731445 37.72412109 C-4.74811168 26.12552332 -5.16090033 14.57236847 -6 3 C-4.515 3.99 -4.515 3.99 -3 5 C-3.33 6.32 -3.66 7.64 -4 9 C-3.01 8.67 -2.02 8.34 -1 8 C-0.67 5.36 -0.34 2.72 0 0 Z " fill="#E23C3C" transform="translate(445,151)"/>
<path d="M0 0 C0.97591583 3.38317487 0.85856655 5.5657338 0 9 C0.66 9 1.32 9 2 9 C2 8.34 2 7.68 2 7 C2.99 7 3.98 7 5 7 C4.938125 6.21625 4.87625 5.4325 4.8125 4.625 C4.9053125 3.325625 4.9053125 3.325625 5 2 C5.99 1.34 6.98 0.68 8 0 C7.45318976 5.00600922 5.75859667 8.97181067 3.4375 13.375 C3.10814453 14.01566406 2.77878906 14.65632813 2.43945312 15.31640625 C1.63360518 16.88138632 0.81781507 18.44124021 0 20 C-0.33 20 -0.66 20 -1 20 C-1.495 17.03 -1.495 17.03 -2 14 C-2.99 14.33 -3.98 14.66 -5 15 C-5.33 16.98 -5.66 18.96 -6 21 C-6.66 21 -7.32 21 -8 21 C-8 22.65 -8 24.3 -8 26 C-8.60328125 26.05800781 -9.2065625 26.11601562 -9.828125 26.17578125 C-12.97611023 27.37043032 -13.36881655 29.17733254 -14.75 32.1875 C-17.54815833 37.6142313 -20.44793413 41.29032642 -26 44 C-29.375 44.5 -29.375 44.5 -32 44 C-32.66 43.34 -33.32 42.68 -34 42 C-36.06874034 41.3574765 -36.06874034 41.3574765 -38 41 C-38 40.34 -38 39.68 -38 39 C-34.37 39.99 -30.74 40.98 -27 42 C-21.9731603 37.21791279 -17.87037449 32.41577101 -14.0625 26.625 C-13.55106445 25.85494629 -13.03962891 25.08489258 -12.51269531 24.29150391 C-7.50893772 16.56913225 -3.63145646 8.4377959 0 0 Z " fill="#EB3839" transform="translate(428,268)"/>
<path d="M0 0 C1.12693298 9.82041595 -3.43153122 15.21560853 -9.109375 22.828125 C-9.73328125 23.54484375 -10.3571875 24.2615625 -11 25 C-11.66 25 -12.32 25 -13 25 C-13.33 24.67 -13.66 24.34 -14 24 C-14 24.99 -14 25.98 -14 27 C-14.66 27 -15.32 27 -16 27 C-16.33 27.99 -16.66 28.98 -17 30 C-18.65 30.33 -20.3 30.66 -22 31 C-21.75 29.1875 -21.75 29.1875 -21 27 C-20.37738281 26.56429688 -19.75476563 26.12859375 -19.11328125 25.6796875 C-16.57916754 23.66551209 -15.7488348 21.87610176 -14.4375 18.9375 C-12.32240056 14.21493371 -12.32240056 14.21493371 -9 12 C-8.34 12.33 -7.68 12.66 -7 13 C-7 11.35 -7 9.7 -7 8 C-6.34 8 -5.68 8 -5 8 C-4.896875 7.05125 -4.79375 6.1025 -4.6875 5.125 C-3.56 0 -3.56 0 0 0 Z " fill="#F6312D" transform="translate(427,281)"/>
<path d="M0 0 C4.022273 6.0334095 4.31939877 12.1724411 4.25 19.1875 C4.25773437 19.98091797 4.26546875 20.77433594 4.2734375 21.59179688 C4.24960447 28.68808231 4.24960447 28.68808231 2 32 C2.01160156 31.30132812 2.02320313 30.60265625 2.03515625 29.8828125 C2.04417969 28.97273438 2.05320312 28.06265625 2.0625 27.125 C2.07410156 26.22007812 2.08570313 25.31515625 2.09765625 24.3828125 C2.16249257 21.9831415 2.16249257 21.9831415 1 20 C1.66 20 2.32 20 3 20 C3 19.34 3 18.68 3 18 C2.01 18 1.02 18 0 18 C-0.268125 18.99 -0.53625 19.98 -0.8125 21 C-1.61421545 23.77777464 -2.47783895 26.52254229 -3.4375 29.25 C-3.66308594 29.89453125 -3.88867188 30.5390625 -4.12109375 31.203125 C-5.11684814 33.23888953 -6.32691296 34.49002729 -8 36 C-7.76023437 34.99582031 -7.52046875 33.99164063 -7.2734375 32.95703125 C-5.22336291 23.74866639 -4.84287375 16.32562505 -7 7 C-7.33639247 5.33394808 -7.67077131 3.66748234 -8 2 C-6.68 1.67 -5.36 1.34 -4 1 C-4.20625 1.78375 -4.4125 2.5675 -4.625 3.375 C-4.74875 4.24125 -4.8725 5.1075 -5 6 C-4.34 6.66 -3.68 7.32 -3 8 C-1 10 -1 10 -1 13 C-0.34 13 0.32 13 1 13 C1.16681109 10.08347826 1.16681109 10.08347826 1 7 C0.34 6.34 -0.32 5.68 -1 5 C-0.625 2.375 -0.625 2.375 0 0 Z " fill="#F13837" transform="translate(419,333)"/>
<path d="M0 0 C1.32 0 2.64 0 4 0 C4 12.21 4 24.42 4 37 C2.35 37.66 0.7 38.32 -1 39 C-1.495 37.515 -1.495 37.515 -2 36 C-1.34 36 -0.68 36 0 36 C0 24.12 0 12.24 0 0 Z " fill="#FE3131" transform="translate(443,175)"/>
<path d="M0 0 C0.94257226 2.54494511 1.15266174 3.63839867 0.078125 6.18359375 C-1.44403433 10.15995925 -1.29086379 13.8433136 -1.25 18.0625 C-1.25773437 18.86494141 -1.26546875 19.66738281 -1.2734375 20.49414062 C-1.2722786 26.02969084 -1.2722786 26.02969084 1 31 C1.33 31.66 1.66 32.32 2 33 C1.34 33 0.68 33 0 33 C0 33.99 0 34.98 0 36 C0.66 36 1.32 36 2 36 C2 37.65 2 39.3 2 41 C2.66 41 3.32 41 4 41 C7.22265625 46.17578125 7.22265625 46.17578125 8 48 C7.67 48.99 7.34 49.98 7 51 C-1.58479352 39.15298494 -5.24747151 27.71044323 -4 13 C-2.93622675 8.5590951 -1.57121448 4.28576807 0 0 Z M4 13 C4.33 13 4.66 13 5 13 C5.10957031 14.19496094 5.21914063 15.38992188 5.33203125 16.62109375 C6.12815456 24.77236917 6.88332764 32.34998604 10 40 C8.35 39.67 6.7 39.34 5 39 C5.33 38.34 5.66 37.68 6 37 C5.03927918 33.52662474 4.00881937 31.01322906 2 28 C2.33 27.34 2.66 26.68 3 26 C3.22950319 23.795636 3.41075933 21.58607827 3.5625 19.375 C3.64628906 18.18648438 3.73007812 16.99796875 3.81640625 15.7734375 C3.87699219 14.85820312 3.93757813 13.94296875 4 13 Z " fill="#E24241" transform="translate(333,332)"/>
<path d="M0 0 C1.32 0.66 2.64 1.32 4 2 C4 4.31 4 6.62 4 9 C3.01 9.495 3.01 9.495 2 10 C2.02320313 10.96421875 2.04640625 11.9284375 2.0703125 12.921875 C2.08835937 14.18515625 2.10640625 15.4484375 2.125 16.75 C2.14820313 18.00296875 2.17140625 19.2559375 2.1953125 20.546875 C2.01537302 23.72820492 1.68998582 25.36521896 0 28 C-1.32 28 -2.64 28 -4 28 C-4.02688151 26.35425434 -4.04634123 24.70838587 -4.0625 23.0625 C-4.07410156 22.14597656 -4.08570313 21.22945312 -4.09765625 20.28515625 C-4 18 -4 18 -3 17 C-2.63239269 14.67182036 -2.29758419 12.3381615 -2 10 C-1.34 10 -0.68 10 0 10 C0 6.7 0 3.4 0 0 Z " fill="#FC3130" transform="translate(441,222)"/>
<path d="M0 0 C1.32 0.33 2.64 0.66 4 1 C4.05420701 3.56278699 4.09377007 6.12441483 4.125 8.6875 C4.14175781 9.40873047 4.15851563 10.12996094 4.17578125 10.87304688 C4.21368559 15.02357192 4.01006528 18.32425126 2 22 C1.34 22.33 0.68 22.66 0 23 C-1.97357506 18.872722 -2.26947996 15.49094115 -2.25 10.9375 C-2.25515625 9.72964844 -2.2603125 8.52179688 -2.265625 7.27734375 C-2.01877749 4.2316811 -1.60255975 2.550105 0 0 Z " fill="#FC312F" transform="translate(333,341)"/>
<path d="M0 0 C-0.33 1.32 -0.66 2.64 -1 4 C-1.66 4 -2.32 4 -3 4 C-3.33 4.99 -3.66 5.98 -4 7 C-4.99 8.485 -4.99 8.485 -6 10 C-7.32 10 -8.64 10 -10 10 C-10.33 12.31 -10.66 14.62 -11 17 C-12.65 17.33 -14.3 17.66 -16 18 C-15.78905439 11.98805011 -14.79024927 8.8492923 -10.6171875 4.4765625 C-7.00061759 1.17447693 -4.94565133 0 0 0 Z " fill="#FB3130" transform="translate(354,315)"/>
<path d="M0 0 C2.31 0 4.62 0 7 0 C6.54109375 0.72703125 6.0821875 1.4540625 5.609375 2.203125 C-2.70423974 15.8262752 -4.67215156 27.32884447 -5 43 C-5.33 43 -5.66 43 -6 43 C-6.495 35.575 -6.495 35.575 -7 28 C-7.66 28.33 -8.32 28.66 -9 29 C-6.13500869 19.29086279 -3.06102449 9.64866618 0 0 Z " fill="#29654B" transform="translate(330,318)"/>
<path d="M0 0 C0.66 0 1.32 0 2 0 C1.67 1.98 1.34 3.96 1 6 C1.99 5.67 2.98 5.34 4 5 C4.70146314 7.22481229 5.38565954 9.45507368 6.0625 11.6875 C6.44535156 12.92886719 6.82820313 14.17023438 7.22265625 15.44921875 C7.96785758 18.8531786 7.99851065 20.71559076 7 24 C6.34 24 5.68 24 5 24 C4.67 24.66 4.34 25.32 4 26 C2.54815522 21.46298506 1.76490804 17.81938524 2 13 C1.01 13 0.02 13 -1 13 C-1.33 10.36 -1.66 7.72 -2 5 C-1.34 5 -0.68 5 0 5 C-0.2784375 4.0409375 -0.2784375 4.0409375 -0.5625 3.0625 C-0.7790625 2.0415625 -0.7790625 2.0415625 -1 1 C-0.67 0.67 -0.34 0.34 0 0 Z " fill="#F93231" transform="translate(431,106)"/>
<path d="M0 0 C0.99 0.66 1.98 1.32 3 2 C3.6875 5.625 3.6875 5.625 4 9 C5.32 9.33 6.64 9.66 8 10 C8.33 12.31 8.66 14.62 9 17 C8.01 17 7.02 17 6 17 C5.67 17.66 5.34 18.32 5 19 C1 14.375 1 14.375 1 11 C0.34 11 -0.32 11 -1 11 C-1 9.35 -1 7.7 -1 6 C-1.66 6 -2.32 6 -3 6 C-3 5.01 -3 4.02 -3 3 C-2.34 3 -1.68 3 -1 3 C-0.67 2.01 -0.34 1.02 0 0 Z " fill="#FB312F" transform="translate(336,362)"/>
<path d="M0 0 C0.66 0 1.32 0 2 0 C2.66 1.98 3.32 3.96 4 6 C4.66 6 5.32 6 6 6 C5.95875 6.78375 5.9175 7.5675 5.875 8.375 C5.71271266 11.16116119 5.71271266 11.16116119 8 13 C7.625 16.125 7.625 16.125 7 19 C6.34 19 5.68 19 5 19 C5 18.01 5 17.02 5 16 C4.01 15.67 3.02 15.34 2 15 C0 12 0 12 0.375 9.8125 C0.58125 9.214375 0.7875 8.61625 1 8 C0.01 8 -0.98 8 -2 8 C-1.125 1.125 -1.125 1.125 0 0 Z " fill="#FD3031" transform="translate(413,327)"/>
<path d="M0 0 C0.66 0 1.32 0 2 0 C2.144375 1.134375 2.28875 2.26875 2.4375 3.4375 C2.61171478 6.80777201 2.61171478 6.80777201 4 8 C4.12535652 9.60048202 4.17574787 11.20715928 4.1875 12.8125 C4.20167969 13.68519531 4.21585937 14.55789062 4.23046875 15.45703125 C3.99010406 18.10919085 3.34187309 19.72464999 2 22 C2 21.01 2 20.02 2 19 C1.34 19 0.68 19 0 19 C-0.144375 18.195625 -0.28875 17.39125 -0.4375 16.5625 C-0.74135249 14.07896294 -0.74135249 14.07896294 -2 13 C-2.12487758 11.19072719 -2.17570846 9.37603893 -2.1875 7.5625 C-2.20167969 6.57378906 -2.21585937 5.58507812 -2.23046875 4.56640625 C-2 2 -2 2 0 0 Z " fill="#FC3031" transform="translate(441,141)"/>
<path d="M0 0 C7.71873091 1.83085801 14.01006859 5.73396883 18.57421875 12.24609375 C22.13426654 18.1860091 22.13426654 18.1860091 21.625 21.2734375 C21.41875 21.84320313 21.2125 22.41296875 21 23 C17 16.25 17 16.25 17 14 C16.34 14 15.68 14 15 14 C15 13.01 15 12.02 15 11 C13.02 10.34 11.04 9.68 9 9 C9 7.68 9 6.36 9 5 C7.35 5 5.7 5 4 5 C3.67 4.34 3.34 3.68 3 3 C-1.20316746 1.74142443 -5.46614605 1.88343052 -9.8125 1.9375 C-10.50537109 1.94201172 -11.19824219 1.94652344 -11.91210938 1.95117188 C-13.60811068 1.96286844 -15.30406703 1.98080076 -17 2 C-11.88398507 -1.41067662 -5.96899256 -0.51126275 0 0 Z " fill="#1C6F48" transform="translate(383,322)"/>
<path d="M0 0 C1.32 0 2.64 0 4 0 C4.3125 2.25 4.3125 2.25 4 5 C1.24746868 7.99540173 -0.22687285 8.94165078 -4.3125 9.25 C-5.199375 9.1675 -6.08625 9.085 -7 9 C-7.33 9.99 -7.66 10.98 -8 12 C-9.65 12.33 -11.3 12.66 -13 13 C-12.67 12.34 -12.34 11.68 -12 11 C-11.34 11 -10.68 11 -10 11 C-10 9.35 -10 7.7 -10 6 C-9.01 6 -8.02 6 -7 6 C-6.34 5.67 -5.68 5.34 -5 5 C-5.33 4.34 -5.66 3.68 -6 3 C-5.195625 2.87625 -4.39125 2.7525 -3.5625 2.625 C-2.716875 2.41875 -1.87125 2.2125 -1 2 C-0.67 1.34 -0.34 0.68 0 0 Z " fill="#EC373B" transform="translate(404,382)"/>
<path d="M0 0 C0.33 0 0.66 0 1 0 C1.33 2.31 1.66 4.62 2 7 C2.99 7.33 3.98 7.66 5 8 C5.33 6.68 5.66 5.36 6 4 C7.06740147 7.20220442 6.98428538 7.86053847 6.07421875 10.94140625 C5.85443359 11.68970703 5.63464844 12.43800781 5.40820312 13.20898438 C5.17037109 13.98564453 4.93253906 14.76230469 4.6875 15.5625 C4.46126953 16.34302734 4.23503906 17.12355469 4.00195312 17.92773438 C2.26254618 23.73745382 2.26254618 23.73745382 0 26 C0.55145271 20.76119922 1.42922093 16.02649303 3 11 C1.68 11 0.36 11 -1 11 C-1 11.99 -1 12.98 -1 14 C-1.66 14 -2.32 14 -3 14 C-2.01 9.38 -1.02 4.76 0 0 Z " fill="#DB3F3E" transform="translate(436,242)"/>
<path d="M0 0 C1.61949011 2.57213134 2.04408751 3.67669159 1.625 6.75 C1.41875 7.4925 1.2125 8.235 1 9 C0.34 9 -0.32 9 -1 9 C-1.33 9.99 -1.66 10.98 -2 12 C-2.33 11.67 -2.66 11.34 -3 11 C-3 11.99 -3 12.98 -3 14 C-3.66 14 -4.32 14 -5 14 C-5.33 14.99 -5.66 15.98 -6 17 C-7.65 17.33 -9.3 17.66 -11 18 C-10.75 16.1875 -10.75 16.1875 -10 14 C-9.37996094 13.56558594 -8.75992187 13.13117188 -8.12109375 12.68359375 C-5.57185091 10.66016159 -4.67045888 8.81367441 -3.3125 5.875 C-1.05722071 1.05722071 -1.05722071 1.05722071 0 0 Z " fill="#FC3030" transform="translate(416,294)"/>
<path d="M0 0 C3.25524265 3.02272532 5.61820737 6.25718301 8 10 C7.67 10.66 7.34 11.32 7 12 C6.34 12 5.68 12 5 12 C4.67 13.65 4.34 15.3 4 17 C0.60582235 13.87378374 -1.6062718 11.43458973 -3 7 C-1.68 7 -0.36 7 1 7 C1.33 6.01 1.66 5.02 2 4 C1.34 4 0.68 4 0 4 C0 2.68 0 1.36 0 0 Z " fill="#EA3839" transform="translate(261,124)"/>
<path d="M0 0 C5.7266425 2.9826263 10.26638344 6.62294157 15 11 C13.125 11.625 13.125 11.625 11 12 C10.34 11.34 9.68 10.68 9 10 C8.67 10.66 8.34 11.32 8 12 C8.33 12.99 8.66 13.98 9 15 C4.95579349 13.22054913 1.53921513 10.60470327 -2 8 C-1.34 7.67 -0.68 7.34 0 7 C0.99 7.66 1.98 8.32 3 9 C3.99 8.67 4.98 8.34 6 8 C4.74523029 4.23569087 3.30577382 3.94955892 0 2 C0 1.34 0 0.68 0 0 Z " fill="#E33A3D" transform="translate(374,25)"/>
<path d="M0 0 C0 0.66 0 1.32 0 2 C-0.969375 2.515625 -1.93875 3.03125 -2.9375 3.5625 C-10.04895626 7.67358526 -16.02291615 11.93579378 -19.9296875 19.30078125 C-21 21 -21 21 -24 23 C-22.68951113 17.97521124 -20.44306325 14.66130145 -16.9375 10.9375 C-16.20865601 10.15197754 -16.20865601 10.15197754 -15.46508789 9.35058594 C-11.44499872 5.16586267 -6.14845346 0 0 0 Z " fill="#D64041" transform="translate(358,309)"/>
<path d="M0 0 C1.98 0 3.96 0 6 0 C3 2 3 2 0.80078125 3.19140625 C-5.80079124 6.82900742 -10.32124165 11.11887916 -15 17 C-16.33332095 14.3333581 -15.67102033 12.83319697 -15 10 C-13.68 10 -12.36 10 -11 10 C-10.938125 9.4225 -10.87625 8.845 -10.8125 8.25 C-9.63899292 5.00028808 -7.87922925 3.8322368 -5 2 C-2.1875 1.75 -2.1875 1.75 0 2 C0 1.34 0 0.68 0 0 Z " fill="#E43D3D" transform="translate(359,315)"/>
<path d="M0 0 C0.33 0 0.66 0 1 0 C1.84681133 5.08086796 2.09038099 9.84828377 2 15 C-0.475 14.01 -0.475 14.01 -3 13 C-3.33 14.98 -3.66 16.96 -4 19 C-4.33 19 -4.66 19 -5 19 C-5.33 13.72 -5.66 8.44 -6 3 C-4.515 3.99 -4.515 3.99 -3 5 C-3.33 6.32 -3.66 7.64 -4 9 C-3.01 8.67 -2.02 8.34 -1 8 C-0.67 5.36 -0.34 2.72 0 0 Z " fill="#E53B3C" transform="translate(445,151)"/>
<path d="M0 0 C1.48708139 4.46124417 0.96784507 9.00946909 0.78515625 13.6640625 C0.69464467 18.37066446 1.11399291 21.08481831 4 25 C5.34971475 27.98357998 6 29.70334304 6 33 C-0.54784103 25.98445604 -2.58864918 18.12660625 -2.2734375 8.71875 C-1.95917202 5.5940532 -1.27673491 2.87265354 0 0 Z " fill="#1F764F" transform="translate(348,340)"/>
<path d="M0 0 C2.61136876 1.52329844 3.76182154 2.30531281 4.75 5.1875 C4.87375 6.0846875 4.87375 6.0846875 5 7 C3.375 7.75 3.375 7.75 1 8 C-2.25 6.25 -2.25 6.25 -5 4 C-5 3.01 -5 2.02 -5 1 C-5.66 0.67 -6.32 0.34 -7 0 C-4.25700998 -1.37149501 -2.91518346 -0.83290956 0 0 Z " fill="#FC3131" transform="translate(376,27)"/>
<path d="M0 0 C6.05152225 5.73302108 6.05152225 5.73302108 7 9 C6.125 11.25 6.125 11.25 5 13 C4.34 12.67 3.68 12.34 3 12 C3 11.34 3 10.68 3 10 C2.34 10 1.68 10 1 10 C1 8.68 1 7.36 1 6 C-0.32 5.34 -1.64 4.68 -3 4 C-3 3.34 -3 2.68 -3 2 C-2.01 1.34 -1.02 0.68 0 0 Z " fill="#FB3133" transform="translate(284,158)"/>
<path d="M0 0 C0.33 0.66 0.66 1.32 1 2 C2.89533342 2.46523063 2.89533342 2.46523063 5.0625 2.625 C6.361875 2.74875 7.66125 2.8725 9 3 C9 2.01 9 1.02 9 0 C11.64 1.65 14.28 3.3 17 5 C14 6 14 6 11 5 C10.01 5.495 10.01 5.495 9 6 C9.33 7.32 9.66 8.64 10 10 C7.00779732 8.63629701 4.70973471 7.05091917 2.25 4.875 C1.63640625 4.33617187 1.0228125 3.79734375 0.390625 3.2421875 C-0.06828125 2.83226562 -0.5271875 2.42234375 -1 2 C-0.67 1.34 -0.34 0.68 0 0 Z " fill="#E53B3C" transform="translate(50,395)"/>
<path d="M0 0 C-6.56029659 3.91094604 -10.47539363 5.1344871 -18.25 5.0625 C-19.51328125 5.05347656 -20.7765625 5.04445313 -22.078125 5.03515625 C-23.04234375 5.02355469 -24.0065625 5.01195312 -25 5 C-19.17380927 1.11587285 -12.74554144 2 -6 2 C-6 1.34 -6 0.68 -6 0 C-3.50907189 -1.24546405 -2.58919267 -0.7767578 0 0 Z M-17 0 C-16.34 0.66 -15.68 1.32 -15 2 C-15.66 2 -16.32 2 -17 2 C-17 1.34 -17 0.68 -17 0 Z " fill="#17784A" transform="translate(394,377)"/>
<path d="M0 0 C1.65 1.65 3.3 3.3 5 5 C4.01 5.33 3.02 5.66 2 6 C2.350625 6.9075 2.70125 7.815 3.0625 8.75 C4 12 4 12 3 16 C-0.3 11.38 -3.6 6.76 -7 2 C-6.34 1.67 -5.68 1.34 -5 1 C-3.5 2.3125 -3.5 2.3125 -2 4 C-2 4.99 -2 5.98 -2 7 C-1.34 6.67 -0.68 6.34 0 6 C0 4.02 0 2.04 0 0 Z " fill="#E7383B" transform="translate(274,143)"/>
<path d="M0 0 C0.66 0.33 1.32 0.66 2 1 C1.690625 2.258125 1.38125 3.51625 1.0625 4.8125 C-0.62576449 13.08619337 -0.67172134 21.58569955 -1 30 C-1.33 30 -1.66 30 -2 30 C-2.33 25.05 -2.66 20.1 -3 15 C-3.99 15.495 -3.99 15.495 -5 16 C-3.41078475 10.63904723 -1.81027062 5.29156027 0 0 Z " fill="#2A7051" transform="translate(326,331)"/>
<path d="M0 0 C0.66 0.33 1.32 0.66 2 1 C2 2.65 2 4.3 2 6 C2.99 6.33 3.98 6.66 5 7 C4.34 7.66 3.68 8.32 3 9 C0.19936568 7.85805571 -2.47332213 6.67198768 -5 5 C-6 2.25 -6 2.25 -6 0 C-3.4832097 -1.25839515 -2.62168527 -0.81927665 0 0 Z " fill="#FC3030" transform="translate(74,406)"/>
<path d="M0 0 C0.99 0.66 1.98 1.32 3 2 C3 2.99 3 3.98 3 5 C3.66 5.33 4.32 5.66 5 6 C2 7 2 7 -1 6 C-1.86625 5.731875 -2.7325 5.46375 -3.625 5.1875 C-6 4 -6 4 -6.8125 1.875 C-6.874375 1.25625 -6.93625 0.6375 -7 0 C-3.8195064 -1.06016453 -3.04021693 -1.04507457 0 0 Z " fill="#EC3732" transform="translate(55,392)"/>
<path d="M0 0 C2.02054804 1.64169528 4.02043058 3.30911778 6 5 C6 5.33 6 5.66 6 6 C-7.2 6 -20.4 6 -34 6 C-34 5.67 -34 5.34 -34 5 C-22.12 5 -10.24 5 2 5 C1.34 3.35 0.68 1.7 0 0 Z " fill="#087945" transform="translate(335,384)"/>
<path d="M0 0 C3.56720996 2.67540747 6.41126424 5.35659412 9 9 C9 9.66 9 10.32 9 11 C8.34 11 7.68 11 7 11 C6.67 11.99 6.34 12.98 6 14 C6 13.34 6 12.68 6 12 C5.01 12 4.02 12 3 12 C2.34 12.66 1.68 13.32 1 14 C0.01 12.02 -0.98 10.04 -2 8 C-1.34 8 -0.68 8 0 8 C0.66 8.66 1.32 9.32 2 10 C2.76956136 7.65466049 2.76956136 7.65466049 3 5 C1.62485459 3.2912354 1.62485459 3.2912354 0 2 C0 1.34 0 0.68 0 0 Z " fill="#E53B39" transform="translate(287,160)"/>
<path d="M0 0 C0.66 0 1.32 0 2 0 C2.66 1.32 3.32 2.64 4 4 C4.99 4 5.98 4 7 4 C6.67 5.32 6.34 6.64 6 8 C6.66 8 7.32 8 8 8 C8 8.66 8 9.32 8 10 C8.66 10.33 9.32 10.66 10 11 C8.35 11.33 6.7 11.66 5 12 C4.67 10.68 4.34 9.36 4 8 C3.34 8 2.68 8 2 8 C2 7.34 2 6.68 2 6 C1.34 6 0.68 6 0 6 C-0.38218767 4.34385343 -0.71395102 2.67542976 -1 1 C-0.67 0.67 -0.34 0.34 0 0 Z " fill="#FB3131" transform="translate(409,66)"/>
<path d="M0 0 C3.465 1.98 3.465 1.98 7 4 C2.32254906 5.25931371 -2.14742931 6 -7 6 C-9.25 3.5 -9.25 3.5 -11 1 C-10.38125 1.33 -9.7625 1.66 -9.125 2 C-7.08981656 3.14193235 -7.08981656 3.14193235 -5 3 C-3.31243867 2.03567924 -1.64333504 1.03789581 0 0 Z " fill="#E63C3C" transform="translate(352,382)"/>
<path d="M0 0 C2.97 0.33 5.94 0.66 9 1 C9 1.99 9 2.98 9 4 C9.66 4.33 10.32 4.66 11 5 C8.05181084 6.51621157 6.54643456 7.11177071 3.25 6.4375 C1 5 1 5 0.1875 2.375 C0.125625 1.59125 0.06375 0.8075 0 0 Z " fill="#FA3331" transform="translate(357,19)"/>
<path d="M0 0 C0.33 0 0.66 0 1 0 C0.48351265 7.78808563 -0.44876534 15.34925042 -2 23 C-2.33 23 -2.66 23 -3 23 C-3.33 18.38 -3.66 13.76 -4 9 C-3.34 9 -2.68 9 -2 9 C-1.7834375 7.0509375 -1.7834375 7.0509375 -1.5625 5.0625 C-1.125 1.125 -1.125 1.125 0 0 Z " fill="#E63A3C" transform="translate(446,222)"/>
<path d="M0 0 C4 0 4 0 5.75 1.375 C7 3 7 3 7 5 C8.175625 5.0928125 8.175625 5.0928125 9.375 5.1875 C12 6 12 6 13.375 8.3125 C14.02604476 11.11199248 13.78953402 12.31672858 13 15 C12.0158875 13.73299277 11.03788503 12.4612381 10.0625 11.1875 C9.51722656 10.47980469 8.97195313 9.77210938 8.41015625 9.04296875 C7 7 7 7 6 4 C4.06669397 2.90833725 4.06669397 2.90833725 2 2 C1.34 1.34 0.68 0.68 0 0 Z " fill="#E0413C" transform="translate(397,320)"/>
<path d="M0 0 C1.485 0.99 1.485 0.99 3 2 C3 3.32 3 4.64 3 6 C3.66 6 4.32 6 5 6 C4.625 7.9375 4.625 7.9375 4 10 C3.01 10.495 3.01 10.495 2 11 C2 10.34 2 9.68 2 9 C1.01 9.33 0.02 9.66 -1 10 C-1.02689216 8.52093108 -1.04634621 7.04172517 -1.0625 5.5625 C-1.07410156 4.73878906 -1.08570313 3.91507812 -1.09765625 3.06640625 C-1 1 -1 1 0 0 Z " fill="#FB302F" transform="translate(258,122)"/>
<path d="M0 0 C1.32 0 2.64 0 4 0 C3.67 2.97 3.34 5.94 3 9 C1.68 8.67 0.36 8.34 -1 8 C-1.625 5.125 -1.625 5.125 -2 2 C-1.34 1.34 -0.68 0.68 0 0 Z " fill="#F33536" transform="translate(245,51)"/>
<path d="M0 0 C2.88437779 1.29299694 4.87219421 2.65941363 7 5 C6.67 5.66 6.34 6.32 6 7 C4.02 6.34 2.04 5.68 0 5 C0.33 6.65 0.66 8.3 1 10 C-0.32 8.68 -1.64 7.36 -3 6 C-2.01 4.02 -1.02 2.04 0 0 Z " fill="#EA3A3B" transform="translate(396,45)"/>
<path d="M0 0 C2.72426311 2.35277269 3.8141763 4.62496331 5 8 C4.01 7.67 3.02 7.34 2 7 C1.67 9.31 1.34 11.62 1 14 C-1.34058637 11.87219421 -2.70700306 9.88437779 -4 7 C-2.68 6.34 -1.36 5.68 0 5 C0 3.35 0 1.7 0 0 Z " fill="#E73A3C" transform="translate(256,116)"/>
<path d="M0 0 C0.33 0.66 0.66 1.32 1 2 C1.99 2 2.98 2 4 2 C3.67 5.3 3.34 8.6 3 12 C1.27953495 9.7060466 -0.4094295 7.38585576 -2 5 C-1.48275862 1.48275862 -1.48275862 1.48275862 0 0 Z " fill="#FB332E" transform="translate(425,93)"/>
<path d="M0 0 C7.30645606 1.05084393 14.06392339 2.45677191 21 5 C21 5.33 21 5.66 21 6 C18.69 6.33 16.38 6.66 14 7 C13.67 6.01 13.34 5.02 13 4 C8.67551867 3.26167392 4.34464536 2.60825035 0 2 C0 1.34 0 0.68 0 0 Z " fill="#E23B3C" transform="translate(336,11)"/>
<path d="M0 0 C1.32 0 2.64 0 4 0 C3.67 1.98 3.34 3.96 3 6 C1.68 6 0.36 6 -1 6 C-1.33 6.99 -1.66 7.98 -2 9 C-3.65 9.33 -5.3 9.66 -7 10 C-6.67 9.34 -6.34 8.68 -6 8 C-5.34 8 -4.68 8 -4 8 C-4 6.35 -4 4.7 -4 3 C-3.01 3 -2.02 3 -1 3 C-0.34 2.67 0.32 2.34 1 2 C0.67 1.34 0.34 0.68 0 0 Z " fill="#FE3132" transform="translate(398,385)"/>
<path d="M0 0 C0 1.98 0 3.96 0 6 C-1.32 5.67 -2.64 5.34 -4 5 C-4.18175781 5.62648438 -4.36351562 6.25296875 -4.55078125 6.8984375 C-4.80214844 7.71570313 -5.05351562 8.53296875 -5.3125 9.375 C-5.55613281 10.18710937 -5.79976563 10.99921875 -6.05078125 11.8359375 C-7 14 -7 14 -10 16 C-5.2 0 -5.2 0 0 0 Z " fill="#1A7547" transform="translate(324,345)"/>
<path d="M0 0 C2.6875 0.875 2.6875 0.875 5 2 C4.67 3.32 4.34 4.64 4 6 C2.35 6 0.7 6 -1 6 C-1.66 4.68 -2.32 3.36 -3 2 C-2.01 1.34 -1.02 0.68 0 0 Z " fill="#FB3132" transform="translate(61,399)"/>
<path d="M0 0 C0 2.31 0 4.62 0 7 C-0.99 7.33 -1.98 7.66 -3 8 C-4.21869929 10.50447516 -4.21869929 10.50447516 -5 13 C-5.66 11.68 -6.32 10.36 -7 9 C-6.34 8.67 -5.68 8.34 -5 8 C-4.855625 7.030625 -4.71125 6.06125 -4.5625 5.0625 C-4.376875 4.051875 -4.19125 3.04125 -4 2 C-1 0 -1 0 0 0 Z " fill="#FC2F2E" transform="translate(427,281)"/>
<path d="M0 0 C0 0.66 0 1.32 0 2 C0.66 2 1.32 2 2 2 C2 3.65 2 5.3 2 7 C-0.97 6.505 -0.97 6.505 -4 6 C-4.33 4.35 -4.66 2.7 -5 1 C-3 0 -3 0 0 0 Z " fill="#FB322D" transform="translate(423,84)"/>
<path d="M0 0 C3.375 -0.125 3.375 -0.125 7 0 C7.66 0.66 8.32 1.32 9 2 C8.01 2.495 8.01 2.495 7 3 C5.9590934 4.64142963 4.95495674 6.30712215 4 8 C1.53721199 5.53721199 1.00228745 3.29323018 0 0 Z " fill="#FA302E" transform="translate(389,43)"/>
<path d="M0 0 C1.32 0.33 2.64 0.66 4 1 C2.44298069 5.67105792 -0.08447373 9.08705685 -3 13 C-4 10 -4 10 -3.0625 7.8125 C-2.711875 7.214375 -2.36125 6.61625 -2 6 C-1.34 6 -0.68 6 0 6 C-0.33 5.01 -0.66 4.02 -1 3 C-0.67 2.01 -0.34 1.02 0 0 Z " fill="#E83B3C" transform="translate(300,355)"/>
<path d="M0 0 C0.33 0 0.66 0 1 0 C1.144375 1.0725 1.28875 2.145 1.4375 3.25 C1.83749442 5.91662949 2.27591924 8.41399729 3 11 C1.68 11 0.36 11 -1 11 C-1 11.99 -1 12.98 -1 14 C-1.66 14 -2.32 14 -3 14 C-2.01 9.38 -1.02 4.76 0 0 Z " fill="#EA3939" transform="translate(436,242)"/>
<path d="M0 0 C0.99 0 1.98 0 3 0 C3 1.32 3 2.64 3 4 C3.66 4 4.32 4 5 4 C4.67 5.98 4.34 7.96 4 10 C3.34 10 2.68 10 2 10 C0.68373308 6.38026598 0 3.90432869 0 0 Z " fill="#FC3130" transform="translate(276,149)"/>
<path d="M0 0 C1.28132813 0.19464844 2.56265625 0.38929688 3.8828125 0.58984375 C4.87023437 0.74582031 5.85765625 0.90179688 6.875 1.0625 C3.15625 3.109375 3.15625 3.109375 0.625 2.6875 C0.0475 2.48125 -0.53 2.275 -1.125 2.0625 C-1.455 2.7225 -1.785 3.3825 -2.125 4.0625 C-2.785 3.4025 -3.445 2.7425 -4.125 2.0625 C-6.70854218 1.89562552 -6.70854218 1.89562552 -9.125 2.0625 C-9.125 1.4025 -9.125 0.7425 -9.125 0.0625 C-6.01752306 -1.49123847 -3.38273473 -0.52278628 0 0 Z " fill="#EA3A39" transform="translate(119.125,419.9375)"/>
<path d="M0 0 C0 0.66 0 1.32 0 2 C-1.5778125 2.8971875 -1.5778125 2.8971875 -3.1875 3.8125 C-6.14860478 5.50370009 -9.08360936 7.23249052 -12 9 C-11.77734375 7.171875 -11.77734375 7.171875 -11 5 C-9.00390625 3.515625 -9.00390625 3.515625 -6.5625 2.25 C-5.75941406 1.82203125 -4.95632813 1.3940625 -4.12890625 0.953125 C-2 0 -2 0 0 0 Z " fill="#E33E3D" transform="translate(358,309)"/>
<path d="M0 0 C0.74765625 0.25136719 1.4953125 0.50273437 2.265625 0.76171875 C3.74289062 1.21998047 3.74289062 1.21998047 5.25 1.6875 C6.22453125 2.00074219 7.1990625 2.31398438 8.203125 2.63671875 C11.05206164 3.30123279 11.05206164 3.30123279 13.359375 1.58203125 C13.90078125 1.05996094 14.4421875 0.53789062 15 0 C14.625 1.9375 14.625 1.9375 14 4 C11.23749964 5.38125018 9.05268901 5.19079306 6 5 C5.34 4.34 4.68 3.68 4 3 C1.93125966 2.3574765 1.93125966 2.3574765 0 2 C0 1.34 0 0.68 0 0 Z " fill="#DC3B3E" transform="translate(390,307)"/>
<path d="M0 0 C0.66 0 1.32 0 2 0 C1.71758359 1.46015291 1.42373386 2.91809793 1.125 4.375 C0.96257812 5.18710937 0.80015625 5.99921875 0.6328125 6.8359375 C0 9 0 9 -2 11 C-2.66 8.69 -3.32 6.38 -4 4 C-3.34 3.34 -2.68 2.68 -2 2 C-1.67 2.33 -1.34 2.66 -1 3 C-0.67 2.01 -0.34 1.02 0 0 Z " fill="#E63C3A" transform="translate(319,318)"/>
<path d="M0 0 C2.31 0 4.62 0 7 0 C4.375 4.875 4.375 4.875 1 6 C0 5 0 5 -0.0625 2.4375 C-0.041875 1.633125 -0.02125 0.82875 0 0 Z " fill="#1B734A" transform="translate(330,318)"/>
<path d="M0 0 C-1.375 1.5 -1.375 1.5 -3 3 C-3.66 3 -4.32 3 -5 3 C-5.33 3.99 -5.66 4.98 -6 6 C-8.475 5.01 -8.475 5.01 -11 4 C-3.77464789 -1.88732394 -3.77464789 -1.88732394 0 0 Z " fill="#EC383E" transform="translate(220,409)"/>
<path d="M0 0 C1.32 0 2.64 0 4 0 C4.33 1.32 4.66 2.64 5 4 C2.36 4.33 -0.28 4.66 -3 5 C-1.75 2.5 -1.75 2.5 0 0 Z " fill="#FD3131" transform="translate(284,15)"/>
<path d="M0 0 C0.99 0.33 1.98 0.66 3 1 C2.814375 1.5775 2.62875 2.155 2.4375 2.75 C1.84535138 4.94099315 1.84535138 4.94099315 2.46875 6.84375 C3.05547708 9.22517167 3.09850501 11.30165934 3.0625 13.75 C3.05347656 14.54921875 3.04445313 15.3484375 3.03515625 16.171875 C3.01775391 17.07679688 3.01775391 17.07679688 3 18 C2.67 18 2.34 18 2 18 C1.86722656 17.19175781 1.73445313 16.38351562 1.59765625 15.55078125 C1.42105469 14.48214844 1.24445313 13.41351563 1.0625 12.3125 C0.88847656 11.25675781 0.71445312 10.20101563 0.53515625 9.11328125 C0.19304975 7.12307047 -0.19112483 5.13934472 -0.62890625 3.16796875 C-0.75136719 2.45253906 -0.87382812 1.73710937 -1 1 C-0.67 0.67 -0.34 0.34 0 0 Z " fill="#DF443D" transform="translate(412,334)"/>
<path d="M0 0 C2.31 0.33 4.62 0.66 7 1 C7 1.66 7 2.32 7 3 C7.66 3.33 8.32 3.66 9 4 C5.20731707 5.26422764 3.70731707 4.23577236 0 3 C0 2.01 0 1.02 0 0 Z " fill="#FC2F31" transform="translate(51,394)"/>
<path d="M0 0 C0.99 0.33 1.98 0.66 3 1 C2.02526874 2.66926454 1.04510211 4.33535642 0.0625 6 C-0.75541016 7.3921875 -0.75541016 7.3921875 -1.58984375 8.8125 C-2.05519531 9.534375 -2.52054687 10.25625 -3 11 C-3.33 11 -3.66 11 -4 11 C-4 9.02 -4 7.04 -4 5 C-2.68 4.34 -1.36 3.68 0 3 C0 2.01 0 1.02 0 0 Z " fill="#E23D3F" transform="translate(417,370)"/>
<path d="M0 0 C2 1 2 1 3.4375 3.5 C4.81319541 6.29155483 4.81319541 6.29155483 8 7 C8 7.66 8 8.32 8 9 C4.66666667 7.66666667 1.33333333 6.33333333 -2 5 C-1.34 4.67 -0.68 4.34 0 4 C-0.33 3.01 -0.66 2.02 -1 1 C-0.67 0.67 -0.34 0.34 0 0 Z " fill="#E93A38" transform="translate(388,310)"/>
<path d="M0 0 C0.33 0 0.66 0 1 0 C1.36263859 5.8022175 0.25684543 9.63999211 -2 15 C-2.66 15 -3.32 15 -4 15 C-3.79503906 14.25234375 -3.59007812 13.5046875 -3.37890625 12.734375 C-3.10949219 11.74953125 -2.84007812 10.7646875 -2.5625 9.75 C-2.29566406 8.77546875 -2.02882813 7.8009375 -1.75390625 6.796875 C-1.14455416 4.53627347 -0.55761745 2.27377991 0 0 Z " fill="#E34042" transform="translate(308,299)"/>
<path d="M0 0 C0.66 0 1.32 0 2 0 C1.125 6.75 1.125 6.75 0 9 C-0.66 9 -1.32 9 -2 9 C-2.25 3.375 -2.25 3.375 0 0 Z " fill="#FD312F" transform="translate(301,183)"/>
<path d="M0 0 C1.98 0.99 3.96 1.98 6 3 C5.67 4.32 5.34 5.64 5 7 C2.5625 6.1875 2.5625 6.1875 0 5 C-0.33 4.01 -0.66 3.02 -1 2 C-0.67 1.34 -0.34 0.68 0 0 Z " fill="#FD312D" transform="translate(382,34)"/>
<path d="M0 0 C1.305239 3.91571701 0.32239848 5.03892997 -1.4375 8.6875 C-1.91058594 9.68136719 -2.38367188 10.67523438 -2.87109375 11.69921875 C-3.42990234 12.83810547 -3.42990234 12.83810547 -4 14 C-4.33 14 -4.66 14 -5 14 C-5.28883414 9.93465943 -4.57875609 7.66941645 -2.5 4.1875 C-2.0359375 3.39730469 -1.571875 2.60710937 -1.09375 1.79296875 C-0.55234375 0.90544922 -0.55234375 0.90544922 0 0 Z " fill="#DF4040" transform="translate(316,329)"/>
<path d="M0 0 C1.46726798 3.81489674 0.43336419 6.29011622 -1 10 C-1.66 10 -2.32 10 -3 10 C-3 10.99 -3 11.98 -3 13 C-3.66 13 -4.32 13 -5 13 C-3.58192622 8.52761347 -1.88695626 4.28853694 0 0 Z " fill="#E03C3E" transform="translate(428,268)"/>
<path d="M0 0 C0.66 0 1.32 0 2 0 C3.6875 2.3125 3.6875 2.3125 5 5 C4.67 5.99 4.34 6.98 4 8 C2.35 7.67 0.7 7.34 -1 7 C-0.34 6.67 0.32 6.34 1 6 C0.67 4.02 0.34 2.04 0 0 Z " fill="#FC312E" transform="translate(294,171)"/>
<path d="M0 0 C2.02054804 1.64169528 4.02043058 3.30911778 6 5 C6 5.33 6 5.66 6 6 C1.71 6 -2.58 6 -7 6 C-7 5.67 -7 5.34 -7 5 C-4.03 5 -1.06 5 2 5 C1.34 3.35 0.68 1.7 0 0 Z " fill="#1F774D" transform="translate(335,384)"/>
<path d="M0 0 C2 0 2 0 3.625 1.3125 C5 3 5 3 5 6 C5.99 6 6.98 6 8 6 C8 7.65 8 9.3 8 11 C4.31993178 7.61831569 2.0214155 4.57478244 0 0 Z " fill="#DD3D3E" transform="translate(267,144)"/>
<path d="M0 0 C3.3 1.65 6.6 3.3 10 5 C6.21111092 5.94722227 5.43032472 6.02909741 2 5 C1.34 5 0.68 5 0 5 C0 3.35 0 1.7 0 0 Z " fill="#E43D3C" transform="translate(68,401)"/>
<path d="M0 0 C0.66 0 1.32 0 2 0 C2.25028811 1.58013217 2.47440946 3.16442306 2.6875 4.75 C2.87892578 6.07257813 2.87892578 6.07257813 3.07421875 7.421875 C3 10 3 10 0 14 C0 9.38 0 4.76 0 0 Z " fill="#E43B3C" transform="translate(220,394)"/>
<path d="M0 0 C3.32368224 1.10789408 3.61563093 1.48436217 5.25 4.375 C5.60578125 4.98085938 5.9615625 5.58671875 6.328125 6.2109375 C7 8 7 8 6 11 C4.9944239 9.54550599 3.99569565 8.08627557 3 6.625 C2.443125 5.81289063 1.88625 5.00078125 1.3125 4.1640625 C0 2 0 2 0 0 Z " fill="#D44648" transform="translate(334,372)"/>
<path d="M0 0 C1.8125 0.125 1.8125 0.125 4 1 C7.146948 5.88319518 7.146948 5.88319518 6.6875 9.375 C6.460625 9.91125 6.23375 10.4475 6 11 C2 4.25 2 4.25 2 2 C1.34 2 0.68 2 0 2 C0 1.34 0 0.68 0 0 Z " fill="#1A764A" transform="translate(398,334)"/>
<path d="M0 0 C1.21386936 3.64160808 0.6674695 4.33165469 -0.9375 7.6875 C-1.31777344 8.49574219 -1.69804687 9.30398438 -2.08984375 10.13671875 C-2.39019531 10.75160156 -2.69054687 11.36648438 -3 12 C-3.33 12 -3.66 12 -4 12 C-4 10.35 -4 8.7 -4 7 C-3.34 7 -2.68 7 -2 7 C-2.04125 6.21625 -2.0825 5.4325 -2.125 4.625 C-2 2 -2 2 0 0 Z " fill="#D7413F" transform="translate(435,268)"/>
<path d="M0 0 C1.65 0 3.3 0 5 0 C1.0949151 3.55007718 -1.97734643 4.81819916 -7 6 C-7 5.34 -7 4.68 -7 4 C-6.030625 3.71125 -5.06125 3.4225 -4.0625 3.125 C-0.89335797 2.35785318 -0.89335797 2.35785318 0 0 Z " fill="#E14040" transform="translate(397,391)"/>
<path d="M0 0 C1.14926266 0.95421808 2.29430541 1.91352045 3.4375 2.875 C4.07558594 3.40867187 4.71367187 3.94234375 5.37109375 4.4921875 C7 6 7 6 8 8 C7.46375 7.71125 6.9275 7.4225 6.375 7.125 C3.64719516 5.83288192 0.87387282 4.91441408 -2 4 C-1.34 2.68 -0.68 1.36 0 0 Z " fill="#E0403F" transform="translate(344,374)"/>
<path d="M0 0 C0.66 0.99 1.32 1.98 2 3 C0.824375 3.86625 0.824375 3.86625 -0.375 4.75 C-2.80047244 6.82897637 -3.85694417 8.09040333 -5 11 C-5.39169887 8.33644766 -5.40564529 6.60775627 -3.88671875 4.33203125 C-2.63610683 2.8489112 -1.32135486 1.42045648 0 0 Z " fill="#186E44" transform="translate(305,374)"/>
<path d="M0 0 C-0.1875 1.8125 -0.1875 1.8125 -1 4 C-3.5625 5.75 -3.5625 5.75 -6 7 C-5.37162381 3.35541809 -4.14650034 0 0 0 Z " fill="#EE3736" transform="translate(411,302)"/>
<path d="M0 0 C1.32 0 2.64 0 4 0 C4 1.32 4 2.64 4 4 C2.35 4.33 0.7 4.66 -1 5 C-0.67 3.35 -0.34 1.7 0 0 Z " fill="#FD3030" transform="translate(404,382)"/>
<path d="M0 0 C0.99 0.33 1.98 0.66 3 1 C0.61042731 4.24299151 -1.2047869 6.50902342 -5 8 C-4.67 6.68 -4.34 5.36 -4 4 C-3.01 4 -2.02 4 -1 4 C-0.67 2.68 -0.34 1.36 0 0 Z " fill="#13744C" transform="translate(399,368)"/>
<path d="M0 0 C0.66 0.33 1.32 0.66 2 1 C0.02 3.31 -1.96 5.62 -4 8 C-4.66 6.68 -5.32 5.36 -6 4 C-5.01 4 -4.02 4 -3 4 C-2.67 3.01 -2.34 2.02 -2 1 C-1.34 0.67 -0.68 0.34 0 0 Z " fill="#E53B3D" transform="translate(294,369)"/>
<path d="M0 0 C3 1 3 1 4 3 C6.01669827 4.13350534 6.01669827 4.13350534 8 5 C7.34 6.32 6.68 7.64 6 9 C4.02 6.03 2.04 3.06 0 0 Z " fill="#E43B3F" transform="translate(278,159)"/>
<path d="M0 0 C0.99 0.33 1.98 0.66 3 1 C3.33 1.99 3.66 2.98 4 4 C2.35 4.66 0.7 5.32 -1 6 C-1.042721 4.33388095 -1.04063832 2.66617115 -1 1 C-0.67 0.67 -0.34 0.34 0 0 Z " fill="#FD2F32" transform="translate(266,135)"/>
<path d="M0 0 C0.99 1.32 1.98 2.64 3 4 C0.08517222 4.80967438 -1.46113217 5.21845993 -4.3125 4.0625 C-4.869375 3.711875 -5.42625 3.36125 -6 3 C-5.01 3 -4.02 3 -3 3 C-3 2.34 -3 1.68 -3 1 C-2.01 0.67 -1.02 0.34 0 0 Z " fill="#FC2E2D" transform="translate(276,18)"/>
<path d="M0 0 C2.475 0.99 2.475 0.99 5 2 C1.81237635 4.12508244 -0.26512223 4.5020163 -4 5 C-4 4.34 -4 3.68 -4 3 C-3.01 3 -2.02 3 -1 3 C-0.67 2.01 -0.34 1.02 0 0 Z " fill="#E53E3C" transform="translate(212,426)"/>
<path d="M0 0 C0.33 0 0.66 0 1 0 C1.390625 5.859375 1.390625 5.859375 1 8 C-0.32 9.32 -1.64 10.64 -3 12 C-2.01 8.04 -1.02 4.08 0 0 Z " fill="#E0423E" transform="translate(414,357)"/>
<path d="M0 0 C0.66 0.33 1.32 0.66 2 1 C1.125 6.75 1.125 6.75 0 9 C-0.66 9 -1.32 9 -2 9 C-1.34 6.03 -0.68 3.06 0 0 Z " fill="#496B59" transform="translate(326,331)"/>
<path d="M0 0 C0.99 0.33 1.98 0.66 3 1 C1.75023244 4.65316671 1.32901247 5.78065836 -2 8 C-2 7.01 -2 6.02 -2 5 C-1.34 5 -0.68 5 0 5 C-0.2784375 4.0409375 -0.2784375 4.0409375 -0.5625 3.0625 C-0.7790625 2.0415625 -0.7790625 2.0415625 -1 1 C-0.67 0.67 -0.34 0.34 0 0 Z " fill="#E33B3C" transform="translate(417,298)"/>
<path d="M0 0 C0.99 0.33 1.98 0.66 3 1 C1.92598892 3.91517292 1.22189824 5.77810176 -1 8 C-1.04241723 5.66705225 -1.04092937 3.33297433 -1 1 C-0.67 0.67 -0.34 0.34 0 0 Z " fill="#DE3F3D" transform="translate(424,287)"/>
<path d="M0 0 C1.98 0.99 1.98 0.99 4 2 C4 3.65 4 5.3 4 7 C3.01 6.67 2.02 6.34 1 6 C0.67 4.02 0.34 2.04 0 0 Z " fill="#FD302D" transform="translate(243,53)"/>
<path d="M0 0 C0.33 1.32 0.66 2.64 1 4 C-3.75 3.25 -3.75 3.25 -6 1 C-3 0 -3 0 0 0 Z " fill="#E63D38" transform="translate(362,393)"/>
<path d="M0 0 C-1 1.5625 -1 1.5625 -3 3 C-5.76614782 2.96726452 -8.26030547 2.49404328 -11 2 C-11 1.67 -11 1.34 -11 1 C-7.26562152 0.12132271 -3.83225427 -0.08912219 0 0 Z " fill="#E33D3D" transform="translate(375,305)"/>
</svg>
